<svg style="display:none" xmlns="http://www.w3.org/2000/svg" xmlns:xlink="http://www.w3.org/1999/xlink">
      <defs>
	    <g id="icon-user" viewBox="0 0 14 15">
          <path id="path0_stroke" transform="translate(1 10)" d="M 11.0556 4.33333C 11.0556 4.60948 11.2794 4.83333 11.5556 4.83333C 11.8317 4.83333 12.0556 4.60948 12.0556 4.33333L 11.0556 4.33333ZM -0.5 4.33333C -0.5 4.60948 -0.276142 4.83333 0 4.83333C 0.276142 4.83333 0.5 4.60948 0.5 4.33333L -0.5 4.33333ZM 12.0556 4.33333L 12.0556 2.88889L 11.0556 2.88889L 11.0556 4.33333L 12.0556 4.33333ZM 12.0556 2.88889C 12.0556 1.01726 10.5383 -0.5 8.66667 -0.5L 8.66667 0.5C 9.98601 0.5 11.0556 1.56954 11.0556 2.88889L 12.0556 2.88889ZM 8.66667 -0.5L 2.88889 -0.5L 2.88889 0.5L 8.66667 0.5L 8.66667 -0.5ZM 2.88889 -0.5C 1.01726 -0.5 -0.5 1.01726 -0.5 2.88889L 0.5 2.88889C 0.5 1.56954 1.56954 0.5 2.88889 0.5L 2.88889 -0.5ZM -0.5 2.88889L -0.5 4.33333L 0.5 4.33333L 0.5 2.88889L -0.5 2.88889Z"/>
          <path id="path1_stroke" transform="translate(3.889 1)" d="M 5.27778 2.88889C 5.27778 4.20824 4.20824 5.27778 2.88889 5.27778L 2.88889 6.27778C 4.76052 6.27778 6.27778 4.76052 6.27778 2.88889L 5.27778 2.88889ZM 2.88889 5.27778C 1.56954 5.27778 0.5 4.20824 0.5 2.88889L -0.5 2.88889C -0.5 4.76052 1.01726 6.27778 2.88889 6.27778L 2.88889 5.27778ZM 0.5 2.88889C 0.5 1.56954 1.56954 0.5 2.88889 0.5L 2.88889 -0.5C 1.01726 -0.5 -0.5 1.01726 -0.5 2.88889L 0.5 2.88889ZM 2.88889 0.5C 4.20824 0.5 5.27778 1.56954 5.27778 2.88889L 6.27778 2.88889C 6.27778 1.01726 4.76052 -0.5 2.88889 -0.5L 2.88889 0.5Z"/>
        </g>
		<g id="facebook" viewBox="0 0 13 22">
		  <path d="M 11 0L 8 0C 5.23858 0 3 2.23858 3 5L 3 8L 0 8L 0 12L 3 12L 3 20L 7 20L 7 12L 10 12L 11 8L 7 8L 7 5C 7 4.44772 7.44772 4 8 4L 11 4L 11 0Z" stroke-width="2" stroke-linecap="round" stroke-linejoin="round" transform="translate(1 1)"/>
        </g>
		<g id="chevron-down" viewBox="0 0 20 20">
		  <circle id="chevron-circle" cx="10" cy="10" r="10"/>
		  <path d="M 0 8L 4 4L 0 0" stroke-width="2" stroke-linecap="round" stroke-linejoin="round" transform="matrix(0 1 1 0 6 9)" stroke="#3A4047"/>
        </g>
		<symbol id="basket" viewBox="0 0 48 48">
          <path d="M 8 4C 8 6.20914 6.20914 8 4 8C 1.79086 8 0 6.20914 0 4C 0 1.79086 1.79086 0 4 0C 6.20914 0 8 1.79086 8 4Z" stroke-width="4" stroke-linecap="round" stroke-linejoin="round" transform="translate(12 38)" />
          <path d="M 8 4C 8 6.20914 6.20914 8 4 8C 1.79086 8 0 6.20914 0 4C 0 1.79086 1.79086 0 4 0C 6.20914 0 8 1.79086 8 4Z" stroke-width="4" stroke-linecap="round" stroke-linejoin="round" transform="translate(36 38)" />
          <path d="M 9.34 10L 44 10L 40.64 26.78C 40.2625 28.6805 38.5772 30.0371 36.64 30L 15.5 30C 13.479 30.0171 11.7627 28.524 11.5 26.52L 8.46 3.48C 8.19924 1.49119 6.50583 0.00303711 4.5 0L 0 0" stroke-width="4" stroke-linecap="round" stroke-linejoin="round" transform="translate(2 2)"/>
        </symbol>
	  </defs>
</svg>  