<svg width="46" height="62" fill="none" xmlns="http://www.w3.org/2000/svg"><path d="M2.39 55.25v5.23c.15.05.31.08.48.08h39.47v-5.3l-19.98-1.44L2.4 55.25z" fill="#9AD7FF"/><path d="M42.34 49.94H2.87c-.17 0-.33.04-.48.1v5.21h39.95v-5.3z" fill="#C2E7FF"/><path d="M6.75 55.25c0-2.6-1.89-4.77-4.36-5.22-.56.2-.95.73-.95 1.35v7.75c0 .62.4 1.15.95 1.35a5.31 5.31 0 0 0 4.36-5.23z" fill="#4EB9FF"/><path d="M2.15 0C.96 0 0 .96 0 2.15v49.23l10.05-1.44 5.74-24.97L10.05 0h-7.9z" fill="#FFC0D5"/><path d="M42.34 2.87L34.3 0H10.05v49.94H40.9l4.3-12.34V10.9l-2.86-8.03z" fill="#FF755C"/><path d="M33.94 25.72H21.31a1.44 1.44 0 0 1 0-2.87h12.63a1.44 1.44 0 0 1 0 2.87zM36.24 19.98H19.02a1.44 1.44 0 0 1 0-2.87h17.22a1.44 1.44 0 0 1 0 2.87z" fill="#FFC0D5"/><path d="M45.2 49.94l-10.9-1.43 10.9-10.9v12.33zM45.2 0v10.9L34.3 0h10.9z" fill="#FFCE47"/><path d="M43.77 59.13H2.87v-7.75h40.9a1.44 1.44 0 0 0 0-2.87H2.87A2.87 2.87 0 0 0 0 51.38v7.75A2.87 2.87 0 0 0 2.87 62h40.9a1.44 1.44 0 0 0 0-2.87z" fill="#FF4181"/></svg>