<svg width="46" height="62" viewBox="0 0 46 62" fill="none" xmlns="http://www.w3.org/2000/svg">
<path d="M3.7694e-07 1.4352V6.65883C0.151731 6.7138 0.314481 6.74541 0.484496 6.74541H39.9521V1.4352L19.976 2.95639e-08L3.7694e-07 1.4352Z" transform="translate(2.38593 53.8195)" fill="#9AD7FF"/>
<path d="M39.9522 2.95639e-08H0.484618C0.314602 2.95639e-08 0.151852 0.0316051 4.43459e-07 0.0865816V5.3102H39.9522V2.95639e-08Z" transform="translate(2.3858 49.9445)" fill="#C2E7FF"/>
<path d="M5.31008 5.22362C5.31008 2.61562 3.42938 0.448168 0.950465 -4.13895e-07C0.398036 0.200046 -3.62158e-07 0.729468 -3.62158e-07 1.34862V9.09862C-3.62158e-07 9.71777 0.398157 10.2472 0.950465 10.4472C3.42938 9.99896 5.31008 7.83162 5.31008 5.22362Z" transform="translate(1.4353 50.031)" fill="#4EB9FF"/>
<path d="M2.1528 0C0.963906 0 2.21729e-08 0.963906 2.21729e-08 2.1528V51.3797L10.0463 49.9445L15.787 24.9723L10.0463 0H2.1528Z" fill="#FFC0D5"/>
<path d="M32.2917 2.87041L24.2547 0H6.35624e-07V49.9444H30.8565L35.1621 37.6015V10.9075L32.2917 2.87041Z" transform="translate(10.0463)" fill="#FF755C"/>
<path d="M14.0649 2.87041H1.4352C0.642644 2.87041 3.39985e-07 2.22776 3.39985e-07 1.4352C3.39985e-07 0.642644 0.642644 7.68662e-07 1.4352 7.68662e-07H14.0649C14.8575 7.68662e-07 15.5001 0.642644 15.5001 1.4352C15.5001 2.22776 14.8574 2.87041 14.0649 2.87041Z" transform="translate(19.8773 22.8467)" fill="#FFC0D5"/>
<path d="M18.6575 2.87041H1.4352C0.642644 2.87041 6.50406e-07 2.22776 6.50406e-07 1.4352C6.50406e-07 0.642644 0.642644 -7.98225e-07 1.4352 -7.98225e-07H18.6574C19.45 -7.98225e-07 20.0926 0.642644 20.0926 1.4352C20.0926 2.22776 19.45 2.87041 18.6575 2.87041Z" transform="translate(17.581 17.106)" fill="#FFC0D5"/>
<path d="M10.9074 12.3425L-1.56689e-06 10.9074L10.9074 1.50776e-06V12.3425Z" transform="translate(34.301 37.6019)" fill="#FFCE47"/>
<path d="M10.9074 0V10.9074L-1.56689e-06 0H10.9074Z" transform="translate(34.301)" fill="#FFCE47"/>
<path d="M43.7732 10.6204H2.87041V2.87041H43.7732C44.5658 2.87041 45.2084 2.22776 45.2084 1.4352C45.2084 0.642645 44.5658 1.27125e-06 43.7732 1.27125e-06H2.87041C1.28771 1.27125e-06 2.21729e-08 1.28759 2.21729e-08 2.87041V10.6204C2.21729e-08 12.2031 1.28759 13.4908 2.87041 13.4908H43.7732C44.5658 13.4908 45.2084 12.8482 45.2084 12.0556C45.2084 11.2632 44.5656 10.6204 43.7732 10.6204Z" transform="translate(0 48.5092)" fill="#FF4181"/>
</svg>
