<svg width="258" height="77" xmlns="http://www.w3.org/2000/svg"><style/><g id="Canvas" fill="none"><path d="M7.1 14c2 0 2.95-1.32 2.95-2.71 0-1.3-.83-2.28-1.9-2.45.97-.21 1.7-1.05 1.7-2.3C9.86 5.38 8.96 4 6.9 4H.8v10H7.1zm-.92-6.32H3.84V6.51h2.34c.32 0 .6.23.6.58a.6.6 0 0 1-.6.6zm.09 3.8H3.84V10.2h2.43c.44 0 .7.29.7.65 0 .38-.26.63-.7.63zM18.09 14V9.62c0-2.41-1.75-3.04-3.55-3.04-1.1 0-2.45.31-3.42 1.09l.91 1.67c.57-.44 1.34-.71 2.01-.71.89 0 1.35.39 1.35.9v.75c-.39-.5-1.24-.8-2.19-.8-1.08 0-2.49.51-2.49 2.31 0 1.66 1.41 2.39 2.5 2.39.9 0 1.78-.36 2.18-.87V14h2.7zm-3.76-1.57c-.45 0-.95-.14-.95-.59 0-.45.5-.6.95-.6.42 0 .88.13 1.06.39v.4c-.18.26-.64.4-1.06.4zm14.5-5.67v4.9H26.9v-4.9h-2.7v4.9h-1.92v-4.9h-2.7V14h11.94V6.75h-2.7zM39.92 14V9.62c0-2.41-1.75-3.04-3.55-3.04-1.1 0-2.45.31-3.42 1.09l.91 1.67c.57-.44 1.34-.71 2.01-.71.89 0 1.35.39 1.35.9v.75c-.39-.5-1.24-.8-2.19-.8-1.08 0-2.49.51-2.49 2.31 0 1.66 1.41 2.39 2.49 2.39.9 0 1.79-.36 2.19-.87V14h2.7zm-3.76-1.57c-.45 0-.95-.14-.95-.59 0-.45.5-.6.95-.6.42 0 .88.13 1.06.39v.4c-.18.26-.64.4-1.06.4zM49.35 14V9.1h1.9V6.76h-6.54V9.1h1.94V14h2.7zm5.45 0l2.33-3.44V14h2.7V6.75H57.1l-2.18 3.23V6.75h-2.7V14h2.58zm14.14 0V6.75h-7.6V14h2.7V9.1h2.2V14h2.7zm5.08.18c2.58 0 4.08-1.79 4.08-3.81s-1.5-3.8-4.08-3.8c-2.57 0-4.07 1.78-4.07 3.8 0 2.03 1.5 3.81 4.07 3.81zm0-2.38c-.83 0-1.3-.62-1.3-1.43 0-.8.47-1.41 1.3-1.41.84 0 1.3.61 1.3 1.41 0 .81-.46 1.43-1.3 1.43zm10.96-5.05H79.1V14h2.7V9.1h3.18V6.76zm5.72 7.43c1.8 0 3.18-1.32 3.18-3.81 0-2.47-1.38-3.8-3.18-3.8-.75 0-1.45.26-2.04.95v-.76h-2.7v10h2.7v-3.53c.6.7 1.29.95 2.04.95zm-.93-2.38c-.34 0-.87-.2-1.11-.5V9.45c.26-.31.77-.49 1.11-.49.72 0 1.35.51 1.35 1.41 0 .92-.63 1.43-1.35 1.43zm12 2.2V9.62c0-2.41-1.76-3.04-3.56-3.04-1.1 0-2.44.31-3.42 1.09l.92 1.67c.57-.44 1.33-.71 2-.71.9 0 1.36.39 1.36.9v.75c-.4-.5-1.25-.8-2.2-.8-1.07 0-2.48.51-2.48 2.31 0 1.66 1.4 2.39 2.49 2.39.9 0 1.78-.36 2.19-.87V14h2.7zM98 12.43c-.45 0-.94-.14-.94-.59 0-.45.5-.6.94-.6.42 0 .89.13 1.07.39v.4c-.18.26-.65.4-1.07.4zm7.7-5.85c-1.66 0-2.94 1.31-2.94 3.8 0 2.48 1.28 3.8 2.94 3.8.71 0 1.36-.25 1.9-.95v3.53h2.7v-3.53a2.3 2.3 0 0 0 1.89.95c1.66 0 2.94-1.32 2.94-3.81 0-2.47-1.28-3.8-2.94-3.8-.71 0-1.36.26-1.9.95V4h-2.7v3.52a2.3 2.3 0 0 0-1.89-.94zm.94 2.38c.3 0 .75.2.95.5v1.84c-.22.31-.66.5-.95.5-.62 0-1.16-.52-1.16-1.42 0-.91.54-1.42 1.16-1.42zm4.61 2.83c-.3 0-.75-.19-.95-.49V9.45c.22-.31.66-.49.95-.49.62 0 1.16.51 1.16 1.41 0 .92-.54 1.43-1.16 1.43zm7.47 2.21l2.32-3.44V14h2.7V6.75h-2.73l-2.17 3.23V6.75h-2.7V14h2.58zm9.36 0l1-2.16h1.07V14h2.7V6.75h-4.98c-1.74 0-2.77 1.17-2.77 2.54 0 1.4.87 2.04 1.4 2.28L125.09 14h3zm.3-4.28c-.33 0-.55-.18-.55-.43 0-.24.22-.42.55-.42h1.77v.86h-1.77z" transform="translate(79 49)" fill="#3A4047" id="Logo-title"/><path d="M12.29 44V33.92h7.39c7.49 0 11.52-5 11.52-10.94 0-6-4.03-11-11.52-11H2.59V44h9.7zm6.14-18.53H12.3v-5.04h6.14c1.63 0 2.93.82 2.93 2.55 0 1.68-1.3 2.5-2.93 2.5zM63.03 44l-5.8-11.33c2.54-1.25 5.75-4.17 5.75-9.7 0-6-4.03-10.99-11.52-10.99H34.37V44h9.7V33.92h3.5L52 44h11.04zM49.97 25.47h-5.9v-5.04h5.9c1.64 0 3.17.77 3.17 2.5 0 1.77-1.53 2.54-3.17 2.54zM76.6 44V11.98h-9.7V44h9.7zm35.98 0V11.98h-9.7v15.17L91.75 11.98h-9.99V44h9.7V27.78L103.26 44h9.32zm21.74 0V20.43h8.55v-8.45h-26.83v8.45h8.59V44h9.7zm36.28 0v-8.45H156v-3.5h14.26V23.6h-14.25v-3.17h14.59v-8.45H146.3V44h24.29z" transform="translate(77)" fill="#1AB0CE" id="PRINTE"/><g id="cmyk"><path d="M0 22.55C0 10.09 10 0 22.33 0a22.44 22.44 0 0 1 22.34 22.55c0 12.45-10 22.54-22.34 22.54A22.44 22.44 0 0 1 0 22.55z" transform="translate(22.33 17.91)" fill="#4FC2E9" id="Vector"/><path d="M0 22.55C0 10.09 10 0 22.33 0a22.44 22.44 0 0 1 22.34 22.55c0 12.45-10 22.54-22.34 22.54A22.44 22.44 0 0 1 0 22.55z" transform="translate(0 17.91)" fill="#EC87C0" id="Vector_2"/><path d="M11.17 0A22.58 22.58 0 0 0 0 19.53c0 8.34 4.5 15.63 11.17 19.53a22.57 22.57 0 0 0 11.16-19.53c0-8.35-4.49-15.63-11.16-19.53z" transform="translate(22.33 20.93)" fill="#5D9CEC" id="Vector_3"/><path d="M22.33 45.09A22.44 22.44 0 0 1 0 22.55C0 10.09 10 0 22.33 0a22.44 22.44 0 0 1 22.34 22.55c0 12.45-10 22.54-22.34 22.54z" transform="translate(11.17 1)" fill="#FFCE54" id="Vector_4"/><path d="M0 22.55c0 .91.06 1.82.16 2.7 3.25 1.87 7 2.93 11 2.93A22.44 22.44 0 0 0 33.35 2.92c-3.25-1.86-7-2.92-11-2.92A22.44 22.44 0 0 0 0 22.55z" transform="translate(22.33 17.91)" fill="#A0D468" id="Vector_5"/><path d="M11.17 0c-4 0-7.76 1.06-11 2.92a22.44 22.44 0 0 0 22.17 25.26c4 0 7.75-1.06 11-2.92A22.44 22.44 0 0 0 11.17 0z" transform="translate(11.17 17.91)" fill="#ED5564" id="Vector_6"/><path d="M11.8 25.16c.17 0 .34-.02.5-.03h.06a16.27 16.27 0 0 0 .58-.04c.16 0 .32-.02.48-.04l.1-.01.41-.05.13-.01.46-.07.14-.02.36-.06.15-.03.44-.08.16-.04.33-.07.15-.03.41-.1.2-.05.29-.08.26-.08.3-.09.2-.06.26-.09.33-.11.22-.08a29.53 29.53 0 0 0 .43-.16l.4-.15.16-.08.25-.1.1-.05.48-.21.14-.06a28.29 28.29 0 0 0 1.49-.78A22.58 22.58 0 0 0 11.17 0a22.58 22.58 0 0 0-11 22.23l.02.01.53.3.1.06.84.41.13.07a121.2 121.2 0 0 0 .58.26l.26.1.16.08.39.15.2.08.24.08.21.08.34.11.25.09.21.06.3.1.26.07.29.08.2.04.4.1a2 2 0 0 0 .16.04l.32.08c.06 0 .12.02.17.03l.44.08.14.03.37.06.13.02.46.07.14.01.4.05.1.01a17.67 17.67 0 0 0 .61.05l.45.03h.06l.5.03h1.27z" transform="translate(22.33 20.93)" fill="#434A54" id="Vector_7"/></g></g></svg>