<svg width="62" height="62" viewBox="0 0 62 62" fill="none" xmlns="http://www.w3.org/2000/svg">
<path d="M20.6657 5.8768L25.0733 33.9383L20.6657 62L0 56.1232V0L20.6657 5.8768Z" fill="#85C250"/>
<path d="M23.6055 5.8768V62L2.93834 56.1232L-5.61714e-07 28.0617L2.93834 0L23.6055 5.8768Z" transform="translate(38.3945)" fill="#85C250"/>
<path d="M20.6671 0V56.1232L-4.13895e-07 62V5.8768L20.6671 0Z" transform="translate(20.6657)" fill="#C9D467"/>
<path d="M10.3826 5.47359C10.2496 5.47359 10.1143 5.45542 9.98005 5.41716L1.06767 2.88279C0.287221 2.66082 -0.165549 1.84816 0.0564158 1.06771C0.27826 0.287262 1.09056 -0.165627 1.87149 0.0564592L10.7839 2.59083C11.5643 2.81279 12.0171 3.62546 11.7951 4.4059C11.6113 5.05206 11.0225 5.47359 10.3826 5.47359Z" transform="translate(4.40735 48.9788)" fill="#174461"/>
<path d="M10.3826 5.47367C10.2496 5.47367 10.1143 5.45551 9.98005 5.41724L1.06767 2.88287C0.287221 2.66091 -0.165549 1.84825 0.0564158 1.0678C0.27826 0.287347 1.09056 -0.165783 1.87149 0.0565448L10.7839 2.59091C11.5643 2.81288 12.0171 3.62554 11.7951 4.40599C11.6113 5.05215 11.0225 5.47367 10.3826 5.47367Z" transform="translate(4.40735 41.6327)" fill="#174461"/>
<path d="M10.3826 5.47354C10.2496 5.47354 10.1143 5.45538 9.98005 5.41711L1.06767 2.88274C0.287221 2.66078 -0.165549 1.84812 0.0564158 1.06767C0.27826 0.287219 1.09056 -0.165548 1.87149 0.0564169L10.7839 2.59079C11.5643 2.81275 12.0171 3.62541 11.7951 4.40586C11.6113 5.05202 11.0225 5.47354 10.3826 5.47354Z" transform="translate(4.40735 34.2869)" fill="#174461"/>
<path d="M-2.14338e-07 -3.7694e-07V19.3934L8.91238 21.9278V2.53437L-2.14338e-07 -3.7694e-07Z" transform="translate(5.8768 9.01709)" fill="#174461"/>
<path d="M1.46885 5.47366C0.828752 5.47366 0.240115 5.05213 0.0564162 4.40597C-0.165549 3.6254 0.287221 2.81298 1.06767 2.5909L9.98114 0.0564068C10.7612 -0.165558 11.5741 0.287332 11.7962 1.06766C12.0182 1.84823 11.5654 2.66065 10.785 2.88274L1.87149 5.41723C1.73708 5.45537 1.60194 5.47366 1.46885 5.47366Z" transform="translate(25.0732 7.54761)" fill="white"/>
<path d="M1.46885 5.47367C0.828752 5.47367 0.240115 5.05214 0.0564162 4.40598C-0.165549 3.62541 0.287221 2.81299 1.06767 2.59091L9.98114 0.0564164C10.7612 -0.165548 11.5741 0.287219 11.7962 1.06767C12.0182 1.84824 11.5654 2.66066 10.785 2.88274L1.87149 5.41724C1.73708 5.45538 1.60194 5.47367 1.46885 5.47367Z" transform="translate(25.0732 48.9788)" fill="white"/>
<path d="M1.46885 5.47367C0.828752 5.47367 0.240115 5.05214 0.0564162 4.40598C-0.165549 3.62541 0.287221 2.81299 1.06767 2.59091L9.98114 0.0564162C10.7612 -0.165549 11.5741 0.287219 11.7962 1.06767C12.0182 1.84824 11.5654 2.66066 10.785 2.88274L1.87149 5.41724C1.73708 5.4555 1.60194 5.47367 1.46885 5.47367Z" transform="translate(25.0732 41.6328)" fill="white"/>
<path d="M1.46885 5.47361C0.828752 5.47361 0.240115 5.05209 0.0564162 4.40593C-0.165549 3.62536 0.287221 2.81294 1.06767 2.59086L9.98114 0.0563651C10.7612 -0.165479 11.5741 0.287289 11.7962 1.06762C12.0182 1.84819 11.5654 2.66073 10.785 2.88269L1.87149 5.41718C1.73708 5.45533 1.60194 5.47361 1.46885 5.47361Z" transform="translate(25.0732 34.2869)" fill="white"/>
<path d="M1.46885 5.47362C0.828752 5.47362 0.240115 5.0521 0.0564162 4.40594C-0.165549 3.62537 0.287221 2.81283 1.06767 2.59087L9.98114 0.0563739C10.7612 -0.16547 11.5741 0.287178 11.7962 1.06763C12.0182 1.8482 11.5654 2.66062 10.785 2.8827L1.87149 5.41719C1.73708 5.45546 1.60194 5.47362 1.46885 5.47362Z" transform="translate(25.0732 26.9409)" fill="white"/>
<path d="M10.3837 5.47374C10.2507 5.47374 10.1154 5.45558 9.98114 5.41731L1.06767 2.8827C0.28722 2.66074 -0.165551 1.84808 0.0564141 1.06763C0.278379 0.287177 1.09068 -0.165471 1.87149 0.0563729L10.785 2.59099C11.5654 2.81295 12.0182 3.62561 11.7962 4.40606C11.6124 5.05222 11.0236 5.47374 10.3837 5.47374Z" transform="translate(45.7403 7.54749)" fill="#174461"/>
<path d="M10.3837 5.4737C10.2507 5.4737 10.1154 5.45554 9.98114 5.41727L1.06767 2.88266C0.28722 2.66069 -0.165551 1.84803 0.0564141 1.06758C0.278379 0.287136 1.09068 -0.165392 1.87149 0.0563303L10.785 2.59094C11.5654 2.81291 12.0182 3.62557 11.7962 4.40602C11.6124 5.05218 11.0236 5.4737 10.3837 5.4737Z" transform="translate(45.7403 14.8934)" fill="#174461"/>
<path d="M10.3837 5.4737C10.2507 5.4737 10.1154 5.45554 9.98114 5.41727L1.06767 2.88266C0.28722 2.66069 -0.165551 1.84803 0.0564141 1.06758C0.278379 0.287134 1.09068 -0.165393 1.87149 0.0563295L10.785 2.59094C11.5654 2.81291 12.0182 3.62557 11.7962 4.40602C11.6124 5.05217 11.0236 5.4737 10.3837 5.4737Z" transform="translate(45.7403 22.2395)" fill="#174461"/>
<path d="M-9.16481e-07 1.21212e-06V19.3933L8.91347 21.928V2.53461L-9.16481e-07 1.21212e-06Z" transform="translate(47.2097 31.0549)" fill="#174461"/>
</svg>
