<svg width="62" height="62" fill="none" xmlns="http://www.w3.org/2000/svg"><path d="M20.67 5.88l4.4 28.06L20.67 62 0 56.12V0l20.67 5.88zM62 5.88V62l-20.67-5.88-2.94-28.06L41.33 0 62 5.88z" fill="#85C250"/><path d="M41.33 0v56.12L20.67 62V5.88L41.33 0z" fill="#C9D467"/><path d="M14.79 54.45c-.13 0-.27-.02-.4-.05l-8.91-2.54a1.47 1.47 0 0 1 .8-2.82l8.91 2.53a1.47 1.47 0 0 1-.4 2.88zM14.79 47.1c-.13 0-.27-.01-.4-.05l-8.91-2.53a1.47 1.47 0 0 1 .8-2.83l8.91 2.53a1.47 1.47 0 0 1-.4 2.89zM14.79 39.76c-.13 0-.27-.02-.4-.06l-8.91-2.53a1.47 1.47 0 0 1 .8-2.83l8.91 2.54a1.47 1.47 0 0 1-.4 2.88zM5.88 9.02V28.4l8.9 2.53V11.55l-8.9-2.53z" fill="#174461"/><path d="M26.54 13.02a1.47 1.47 0 0 1-.4-2.88l8.91-2.54a1.47 1.47 0 0 1 .8 2.83l-8.9 2.53c-.14.04-.27.06-.4.06zM26.54 54.45a1.47 1.47 0 0 1-.4-2.88l8.91-2.53a1.47 1.47 0 0 1 .8 2.82l-8.9 2.54c-.14.03-.27.05-.4.05zM26.54 47.1a1.47 1.47 0 0 1-.4-2.88l8.91-2.53a1.47 1.47 0 0 1 .8 2.83l-8.9 2.53c-.14.04-.27.06-.4.06zM26.54 39.76a1.47 1.47 0 0 1-.4-2.88l8.91-2.54a1.47 1.47 0 0 1 .8 2.83l-8.9 2.53c-.14.04-.27.06-.4.06zM26.54 32.41a1.47 1.47 0 0 1-.4-2.88L35.05 27a1.47 1.47 0 0 1 .8 2.82l-8.9 2.54c-.14.04-.27.05-.4.05z" fill="#fff"/><path d="M56.12 13.02c-.13 0-.26-.02-.4-.06l-8.91-2.53a1.47 1.47 0 0 1 .8-2.83l8.92 2.54a1.47 1.47 0 0 1-.4 2.88zM56.12 20.37c-.13 0-.26-.02-.4-.06l-8.91-2.53a1.47 1.47 0 0 1 .8-2.83l8.92 2.53a1.47 1.47 0 0 1-.4 2.89zM56.12 27.71c-.13 0-.26-.01-.4-.05l-8.91-2.54a1.47 1.47 0 0 1 .8-2.82l8.92 2.53a1.47 1.47 0 0 1-.4 2.88zM47.21 31.05v19.4l8.91 2.53V33.6l-8.91-2.54z" fill="#174461"/></svg>