<svg width="597" height="284" viewBox="0 0 597 284" version="1.1" xmlns="http://www.w3.org/2000/svg" xmlns:xlink="http://www.w3.org/1999/xlink">
<title>Social icons</title>
<desc>Created using Figma</desc>
<g id="Canvas" transform="translate(-1477 1867)">
<clipPath id="clip-0" clip-rule="evenodd">
<path d="M 1477 -1867L 2074 -1867L 2074 -1583L 1477 -1583L 1477 -1867Z" fill="#FFFFFF"/>
</clipPath>
<g id="Social icons" clip-path="url(#clip-0)">
<path d="M 1477 -1867L 2074 -1867L 2074 -1583L 1477 -1583L 1477 -1867Z" fill="#FFFFFF"/>
<g id="facebook">
<g id="Group">
<g id="Vector">
<use xlink:href="#path0_fill" transform="translate(1507 -1837)" fill="#3B5998"/>
</g>
<g id="Vector">
<use xlink:href="#path1_fill" transform="translate(1523.06 -1827.76)" fill="#FFFFFF"/>
</g>
</g>
</g>
<g id="vk">
<g id="Group">
<g id="Vector">
<use xlink:href="#path0_fill" transform="translate(1585 -1837)" fill="#4D76A1"/>
</g>
<g id="Vector">
<use xlink:href="#path2_fill" transform="translate(1592.62 -1820.49)" fill="#FFFFFF"/>
</g>
</g>
</g>
<g id="twitter">
<g id="Group">
<g id="Vector">
<use xlink:href="#path0_fill" transform="translate(1663 -1837)" fill="#55ACEE"/>
</g>
<g id="Vector">
<use xlink:href="#path3_fill" transform="translate(1673.66 -1822.55)" fill="#FFFFFF"/>
</g>
</g>
</g>
<g id="youtube">
<g id="Group">
<g id="Vector">
<use xlink:href="#path4_fill" transform="translate(1741 -1837)" fill="#E41811"/>
</g>
<g id="Vector">
<use xlink:href="#path5_fill" transform="translate(1751.48 -1828.01)" fill="#FFFFFF"/>
</g>
<g id="Vector">
<use xlink:href="#path6_fill" transform="translate(1772.58 -1809.05)" fill="#FFFFFF"/>
</g>
</g>
</g>
<g id="google">
<g id="Group">
<g id="Vector">
<use xlink:href="#path7_fill" transform="translate(1819 -1837)" fill="#DC4E41"/>
</g>
<g id="Group">
<g id="Vector">
<use xlink:href="#path8_fill" transform="translate(1827.29 -1822.08)" fill="#DC4E41"/>
</g>
<g id="Group">
<g id="Vector">
<use xlink:href="#path9_fill" transform="translate(1827.29 -1822.08)" fill="#FFFFFF"/>
</g>
</g>
</g>
</g>
</g>
<g id="linkedin">
<g id="Group">
<g id="Vector">
<use xlink:href="#path7_fill" transform="translate(1897 -1837)" fill="#007AB9"/>
</g>
<g id="Vector">
<use xlink:href="#path10_fill" transform="translate(1908.5 -1826.91)" fill="#FFFFFF"/>
</g>
</g>
</g>
<g id="pinterest">
<g id="Group">
<g id="Vector">
<use xlink:href="#path0_fill" transform="translate(1663 -1759)" fill="#CB2027"/>
</g>
<g id="Vector">
<use xlink:href="#path11_fill" transform="translate(1675.32 -1748.55)" fill="#F1F2F2"/>
</g>
</g>
</g>
<g id="whatsapp">
<g id="Group">
<g id="Vector">
<use xlink:href="#path0_fill" transform="translate(1741 -1759)" fill="#19D33E"/>
</g>
<g id="Group">
<g id="Vector">
<use xlink:href="#path12_fill" transform="translate(1752.04 -1748.97)" fill="#FFFFFF"/>
</g>
<g id="Vector">
<use xlink:href="#path13_fill" transform="translate(1758.72 -1741.84)" fill="#FFFFFF"/>
</g>
</g>
</g>
</g>
<g id="viber">
<g id="Group">
<g id="Vector">
<use xlink:href="#path0_fill" transform="translate(1819 -1759)" fill="#7D3DAF"/>
</g>
<g id="Group">
<g id="Vector">
<use xlink:href="#path14_fill" transform="translate(1829.17 -1748.92)" fill="#FFFFFF"/>
</g>
<g id="Vector">
<use xlink:href="#path15_fill" transform="translate(1835.82 -1743.4)" fill="#FFFFFF"/>
</g>
<g id="Vector">
<use xlink:href="#path16_fill" transform="translate(1843.05 -1741.59)" fill="#FFFFFF"/>
</g>
<g id="Vector">
<use xlink:href="#path17_fill" transform="translate(1843.56 -1739.74)" fill="#FFFFFF"/>
</g>
</g>
</g>
</g>
<g id="telegram">
<g id="Group">
<g id="Vector">
<use xlink:href="#path0_fill" transform="translate(1897 -1759)" fill="#2BA5E1"/>
</g>
<g id="Vector">
<use xlink:href="#path18_fill" transform="translate(1907 -1745.97)" fill="#FFFFFF"/>
</g>
</g>
</g>
<g id="ok">
<g id="Group">
<g id="Vector">
<use xlink:href="#path19_fill" transform="translate(1515 -1758)" fill="#FFFFFF"/>
</g>
<g id="Group">
<g id="Vector">
<use xlink:href="#path20_fill" transform="translate(1526.81 -1747.41)" fill="#FF9A00"/>
</g>
<g id="Vector">
<use xlink:href="#path21_fill" transform="translate(1507 -1759)" fill="#FF9A00"/>
</g>
</g>
</g>
</g>
<g id="instagram">
<g id="Group">
<g id="Vector">
<use xlink:href="#path0_fill" transform="translate(1585 -1759)" fill="url(#paint29_linear)"/>
</g>
<g id="Group">
<g id="Vector">
<use xlink:href="#path22_fill" transform="translate(1596.04 -1748.38)" fill="#FFFFFF"/>
</g>
<g id="Vector">
<use xlink:href="#path23_fill" transform="translate(1602.39 -1742.03)" fill="#FFFFFF"/>
</g>
<g id="Vector">
<use xlink:href="#path24_fill" transform="translate(1614.37 -1743.61)" fill="#FFFFFF"/>
</g>
</g>
</g>
</g>
</g>
</g>
<defs>
<linearGradient id="paint29_linear" x1="0" y1="0" x2="1" y2="0" gradientUnits="userSpaceOnUse" gradientTransform="matrix(-31.1364 -47.658 47.658 -31.1364 16.2056 63.2262)">
<stop offset="0" stop-color="#E09B3D"/>
<stop offset="0.3" stop-color="#C74C4D"/>
<stop offset="0.6" stop-color="#C21975"/>
<stop offset="1" stop-color="#7024C4"/>
</linearGradient>
<path id="path0_fill" d="M 23.829 47.658C 36.9894 47.658 47.658 36.9894 47.658 23.829C 47.658 10.6686 36.9894 0 23.829 0C 10.6686 0 0 10.6686 0 23.829C 0 36.9894 10.6686 47.658 23.829 47.658Z"/>
<path id="path1_fill" d="M 13.7582 15.5176L 9.50612 15.5176L 9.50612 31.0951L 3.06393 31.0951L 3.06393 15.5176L 6.53198e-07 15.5176L 6.53198e-07 10.043L 3.06393 10.043L 3.06393 6.50039C 3.06393 3.96701 4.26733 -7.4104e-08 9.56347 -7.4104e-08L 14.3354 0.0199641L 14.3354 5.33395L 10.8731 5.33395C 10.3051 5.33395 9.50655 5.6177 9.50655 6.8262L 9.50655 10.0481L 14.321 10.0481L 13.7582 15.5176Z"/>
<path id="path2_fill" fill-rule="evenodd" d="M 15.3088 17.7755L 17.1791 17.7755C 17.1791 17.7755 17.7441 17.7135 18.0325 17.4026C 18.298 17.1171 18.2895 16.581 18.2895 16.581C 18.2895 16.581 18.2529 14.0715 19.4177 13.7019C 20.5659 13.3379 22.0403 16.1274 23.603 17.2C 24.7848 18.0117 25.6827 17.8337 25.6827 17.8337L 29.8613 17.7755C 29.8613 17.7755 32.0472 17.6409 31.0107 15.9222C 30.9258 15.7816 30.4071 14.6509 27.9039 12.3273C 25.2839 9.89546 25.6347 10.2888 28.7909 6.08222C 30.713 3.52037 31.4814 1.95634 31.2414 1.28646C 31.0124 0.648446 29.5988 0.817085 29.5988 0.817085L 24.8939 0.846393C 24.8939 0.846393 24.5452 0.798818 24.2865 0.953437C 24.0338 1.10508 23.8711 1.4585 23.8711 1.4585C 23.8711 1.4585 23.1264 3.44094 22.1333 5.12689C 20.0383 8.68441 19.2006 8.87216 18.8583 8.65128C 18.0618 8.13645 18.2606 6.58303 18.2606 5.47945C 18.2606 2.03195 18.7835 0.5945 17.2424 0.222394C 16.731 0.0987836 16.3546 0.0172244 15.0467 0.00405621C 13.368 -0.0133597 11.9471 0.00915542 11.1426 0.40335C 10.6073 0.665439 10.1945 1.24951 10.4459 1.28307C 10.7569 1.3247 11.4612 1.47294 11.8345 1.9814C 12.3167 2.63726 12.2997 4.11039 12.2997 4.11039C 12.2997 4.11039 12.5766 8.16873 11.6527 8.67294C 11.0185 9.01871 10.1486 8.31273 8.28084 5.08526C 7.32381 3.43202 6.60126 1.60462 6.60126 1.60462C 6.60126 1.60462 6.46193 1.2631 6.21344 1.08045C 5.91184 0.859138 5.49046 0.788623 5.49046 0.788623L 1.01967 0.817933C 1.01967 0.817933 0.348517 0.836623 0.102146 1.12845C -0.11704 1.38799 0.0847297 1.92491 0.0847297 1.92491C 0.0847297 1.92491 3.58491 10.1138 7.54809 14.2405C 11.1821 18.024 15.3088 17.7755 15.3088 17.7755Z"/>
<path id="path3_fill" d="M 27.7627 2.67101C 26.7415 3.12382 25.643 3.43009 24.491 3.56687C 25.6673 2.86216 26.5699 1.74712 26.996 0.416283C 25.8954 1.06917 24.6758 1.5428 23.379 1.79809C 22.34 0.69154 20.8596 -2.47668e-07 19.2204 -2.47668e-07C 16.0753 -2.47668e-07 13.5245 2.5508 13.5245 5.69586C 13.5245 6.1423 13.5751 6.57685 13.6728 6.99398C 8.93904 6.75653 4.74181 4.48906 1.93232 1.04198C 1.44212 1.88304 1.16092 2.86216 1.16092 3.90584C 1.16092 5.88149 2.16722 7.62563 3.69473 8.6468C 2.76149 8.61749 1.88262 8.36134 1.11504 7.93359C 1.11462 7.9578 1.11462 7.98202 1.11462 8.00581C 1.11462 10.7656 3.0788 13.0675 5.68396 13.5904C 5.20651 13.7212 4.7023 13.7904 4.18365 13.7904C 3.81579 13.7904 3.4594 13.7552 3.11193 13.6889C 3.8366 15.9513 5.93968 17.5982 8.43271 17.6445C 6.48297 19.1724 4.02733 20.0827 1.35802 20.0827C 0.899257 20.0827 0.444744 20.0559 1.59253e-07 20.0028C 2.51936 21.6195 5.51405 22.5621 8.73048 22.5621C 19.2072 22.5621 24.9366 13.883 24.9366 6.35554C 24.9366 6.10874 24.9311 5.8628 24.9201 5.61897C 26.0338 4.81614 26.9994 3.81324 27.7627 2.67101Z"/>
<path id="path4_fill" d="M 23.9439 0C 37.1686 0 47.8881 10.7209 47.8881 23.9441C 47.8881 37.1673 37.1686 47.8881 23.9439 47.8881C 10.7193 47.8881 0 37.1671 0 23.9441C 0 10.7211 10.7195 0 23.9439 0Z"/>
<path id="path5_fill" d="M 12.8864 10.4694C 13.6435 10.4694 14.2363 10.2284 14.6702 9.88586C 15.1013 9.54164 15.3168 9.07331 15.3168 8.47167L 15.3168 4.8411C 15.3168 4.30685 15.0968 3.86532 14.6582 3.5257C 14.2167 3.18592 13.6525 3.01693 12.9612 3.01693C 12.2055 3.01693 11.6009 3.17704 11.1534 3.49874C 10.7045 3.82192 10.4799 4.25293 10.4799 4.79918L 10.4799 8.44159C 10.4799 9.04011 10.6984 9.51304 11.1353 9.86778C 11.5723 10.2225 12.1576 10.4694 12.8864 10.4694ZM 12.0948 4.97589C 12.0948 4.83814 12.1667 4.72751 12.3089 4.63923C 12.4525 4.55392 12.6381 4.512 12.8656 4.512C 13.114 4.512 13.3146 4.55392 13.4658 4.63923C 13.6185 4.72751 13.6933 4.8383 13.6933 4.97589L 13.6933 8.42679C 13.6933 8.59742 13.6185 8.73206 13.4688 8.82937C 13.3192 8.92521 13.1186 8.97452 12.8656 8.97452C 12.6187 8.97452 12.4272 8.92816 12.2939 8.83085C 12.1622 8.73649 12.0948 8.60186 12.0948 8.42679L 12.0948 4.97589ZM 17.8968 10.465C 18.1631 10.465 18.434 10.3123 18.7154 10.1597C 18.9998 10.0041 19.2705 9.77655 19.5311 9.48033L 19.5311 10.287L 20.9453 10.287L 20.9453 3.00641L 19.5311 3.00641L 19.5311 8.53299C 19.3994 8.69014 19.2528 8.82033 19.0956 8.92356C 18.9355 9.02531 18.8038 9.07775 18.7006 9.07775C 18.5675 9.07775 18.4701 9.04027 18.4133 8.96104C 18.3534 8.88477 18.3205 8.76049 18.3205 8.58986L 18.3205 3.00789L 16.9093 3.00789L 16.9093 9.09123C 16.9093 9.5252 16.9946 9.85003 17.1577 10.0655C 17.3236 10.2824 17.569 10.465 17.8968 10.465ZM 22.0092 13.4745L 4.91901 13.4745C 2.20143 13.4745 -1.71997e-08 15.5921 -1.71997e-08 18.2005L -1.71997e-08 22.1962C -1.71997e-08 24.8061 2.20143 26.9237 4.91901 26.9237L 22.009 26.9237C 24.7251 26.9237 26.928 24.8061 26.928 22.1962L 26.928 18.2005C 26.9282 15.5919 24.7253 13.4745 22.0092 13.4745ZM 7.46153 17.53L 5.95019 17.53L 5.95019 23.7884L 4.48816 23.7884L 4.48816 17.53L 2.97666 17.53L 2.97666 16.463L 7.4617 16.463C 7.46153 16.463 7.46153 17.53 7.46153 17.53ZM 11.9721 23.8752L 10.3963 23.8752L 10.3963 23.2258C 10.103 23.4653 9.80219 23.6492 9.48493 23.772C 9.17211 23.9007 8.86685 23.962 8.57063 23.962C 8.20553 23.962 7.93315 23.8738 7.74756 23.6957C 7.56493 23.5207 7.47074 23.2573 7.47074 22.9055L 7.47074 17.9642L 9.04652 17.9642L 9.04652 22.497C 9.04652 22.6378 9.0794 22.7365 9.14236 22.7993C 9.21123 22.8636 9.32038 22.8921 9.46718 22.8921C 9.58093 22.8921 9.73052 22.8516 9.90707 22.7678C 10.0851 22.6854 10.2483 22.5807 10.3964 22.4505L 10.3964 17.9625L 11.9722 17.9625C 11.9721 17.9625 11.9721 23.8752 11.9721 23.8752ZM 17.937 22.7499C 17.937 23.1375 17.8142 23.4322 17.5705 23.6403C 17.3295 23.8483 16.9734 23.95 16.514 23.95C 16.2072 23.95 15.9348 23.9111 15.6983 23.8318C 15.4604 23.7526 15.2359 23.6298 15.0324 23.4607L 15.0324 23.8797L 13.4596 23.8797L 13.4596 16.463L 15.0324 16.463L 15.0324 18.853C 15.2449 18.6884 15.4678 18.5597 15.6998 18.4729C 15.9376 18.3847 16.1772 18.3427 16.4181 18.3427C 16.9105 18.3427 17.2861 18.458 17.545 18.6899C 17.8068 18.9233 17.937 19.2661 17.937 19.7135C 17.937 19.7134 17.937 22.7499 17.937 22.7499ZM 23.9321 21.0812L 21.0289 21.0812L 21.0289 22.1497C 21.0289 22.4476 21.0768 22.654 21.177 22.7707C 21.2788 22.886 21.4509 22.9428 21.6919 22.9428C 21.9464 22.9428 22.1199 22.8935 22.2217 22.7962C 22.3205 22.6974 22.3744 22.4834 22.3744 22.1482L 22.3744 21.8908L 23.9352 21.8908L 23.9352 22.1811C 23.9352 22.7617 23.7482 23.1988 23.362 23.4935C 22.982 23.7868 22.4132 23.9334 21.6575 23.9334C 20.9767 23.9334 20.4409 23.7778 20.0504 23.4666C 19.6613 23.1584 19.4637 22.7273 19.4637 22.1826L 19.4637 19.6355C 19.4637 19.1461 19.6792 18.742 20.1102 18.4323C 20.5397 18.1241 21.0904 17.9699 21.7713 17.9699C 22.4656 17.9699 22.9999 18.1136 23.374 18.3995C 23.7467 18.6853 23.9323 19.0982 23.9323 19.6341C 23.9321 19.6341 23.9321 21.0812 23.9321 21.0812ZM 6.61463 10.486L 8.4 10.486L 8.4 6.13562L 10.4786 2.17212e-07L 8.66334 2.17212e-07L 7.55885 4.19326L 7.4451 4.19326L 6.28685 2.17212e-07L 4.48652 2.17212e-07L 6.61447 6.33173C 6.61463 6.33173 6.61463 10.486 6.61463 10.486ZM 15.6833 19.2105L 15.3526 19.2644L 15.0309 19.4306L 15.0309 22.8396C 15.1567 22.9279 15.2808 22.9953 15.4006 23.0326L 15.7762 23.091C 15.9677 23.091 16.107 23.0535 16.1967 22.9742C 16.285 22.898 16.3313 22.7722 16.3313 22.6001L 16.3313 19.7732C 16.3313 19.5861 16.2789 19.4469 16.1683 19.3527C 16.0545 19.2585 15.8944 19.2105 15.6833 19.2105Z"/>
<path id="path6_fill" d="M 0.67644 4.89502e-07C 0.433974 4.89502e-07 0.261862 0.0509583 0.15567 0.155671C 0.0509581 0.255945 2.69556e-07 0.426576 2.69556e-07 0.664439L 2.69556e-07 1.23616L 1.34236 1.23616L 1.34236 0.664439C 1.34236 0.426576 1.28696 0.257424 1.18225 0.155671C 1.07885 0.0509583 0.906905 4.89502e-07 0.67644 4.89502e-07Z"/>
<path id="path7_fill" d="M 23.829 47.24C 36.9894 47.24 47.658 36.665 47.658 23.62C 47.658 10.575 36.9894 0 23.829 0C 10.6686 0 0 10.575 0 23.62C 0 36.665 10.6686 47.24 23.829 47.24Z"/>
<path id="path8_fill" d="M 0.00603362 9.75248C -0.0784974 13.8165 2.74543 17.6948 6.63003 18.9596C 10.2891 20.1782 14.7879 19.2666 17.2227 16.1605C 19.0004 13.9841 19.4044 11.0826 19.212 8.37185C 16.0784 8.34406 12.9448 8.35332 9.81588 8.35796C 9.81078 9.46448 9.81587 10.5668 9.82055 11.6733C 11.6968 11.7247 13.5735 11.7011 15.4497 11.7386C 14.9761 13.3474 13.8972 14.8447 12.2596 15.4257C 9.098 16.8068 5.06387 15.0026 4.06904 11.715C 2.86819 8.5668 4.83407 4.76764 8.0798 3.85185C 10.0924 3.14996 12.1658 3.94027 13.8878 4.97732C 14.7603 4.16806 15.5767 3.30322 16.3787 2.42911C 14.4222 0.806378 11.9079 -0.188569 9.32313 0.0299568C 4.2517 0.0897463 -0.186391 4.73059 0.00603362 9.75248ZM 25.3105 5.56722C 25.3012 6.49269 25.2914 7.4228 25.2867 8.34785C 24.3484 8.35711 23.4152 8.36175 22.4815 8.36638C 22.4815 9.29185 22.4815 10.2123 22.4815 11.1377C 23.4152 11.1424 24.3535 11.147 25.2867 11.1567C 25.2961 12.0822 25.2961 13.0072 25.3054 13.9373C 26.2344 13.9373 27.1681 13.9327 28.1013 13.9373C 28.1064 13.0072 28.1107 12.0822 28.1204 11.1521C 29.0537 11.1474 29.992 11.1428 30.9257 11.1382C 30.9257 10.2127 30.9257 9.29227 30.9257 8.3668C 29.9924 8.36217 29.0541 8.35754 28.1204 8.34827C 28.1153 7.4228 28.1064 6.49269 28.1013 5.56764C 27.1681 5.56722 26.2391 5.56722 25.3105 5.56722Z"/>
<path id="path9_fill" d="M 0.00603418 9.7529C -0.186391 4.73101 4.25127 0.0901674 9.32271 0.0299568C 11.9075 -0.188569 14.4222 0.806378 16.3783 2.42911C 15.5759 3.30364 14.7595 4.16806 13.8874 4.97732C 12.1653 3.94027 10.092 3.14996 8.07938 3.85185C 4.83322 4.76806 2.86734 8.56722 4.06862 11.715C 5.06345 15.0026 9.09757 16.8068 12.2592 15.4257C 13.8963 14.8447 14.9757 13.3474 15.4493 11.7386C 13.573 11.7015 11.6964 11.7247 9.82012 11.6733C 9.81545 10.5668 9.81078 9.46448 9.81545 8.35796C 12.9444 8.35332 16.078 8.34406 19.2116 8.37185C 19.404 11.083 19.0004 13.9845 17.2223 16.1605C 14.7875 19.2666 10.2891 20.1782 6.62961 18.9596C 2.74586 17.6952 -0.0784968 13.8169 0.00603418 9.7529ZM 25.3105 5.56764C 26.2395 5.56764 27.1681 5.56764 28.1013 5.56764C 28.1064 6.49311 28.1153 7.42322 28.1204 8.34827C 29.0537 8.35754 29.992 8.36217 30.9257 8.3668C 30.9257 9.29227 30.9257 10.2127 30.9257 11.1382C 29.9924 11.1428 29.0541 11.1474 28.1204 11.1521C 28.1111 12.0822 28.1064 13.0072 28.1013 13.9373C 27.1681 13.9327 26.234 13.9373 25.3054 13.9373C 25.2965 13.0072 25.2965 12.0822 25.2867 11.1567C 24.3535 11.147 23.4152 11.1428 22.4815 11.1377C 22.4815 10.2123 22.4815 9.29185 22.4815 8.36638C 23.4152 8.36175 24.3488 8.35711 25.2867 8.34785C 25.2914 7.42322 25.3008 6.49311 25.3105 5.56764Z"/>
<path id="path10_fill" d="M 26.5691 15.4282L 26.5691 25.1663L 20.8732 25.1663L 20.8732 16.0808C 20.8732 13.7996 20.0508 12.2417 17.9885 12.2417C 16.4147 12.2417 15.4798 13.2905 15.0669 14.3061C 14.917 14.6691 14.8783 15.1731 14.8783 15.6821L 14.8783 25.1659L 9.18202 25.1659C 9.18202 25.1659 9.25848 9.77811 9.18202 8.18526L 14.8787 8.18526L 14.8787 10.5916C 14.8673 10.6105 14.8511 10.6291 14.8409 10.6472L 14.8787 10.6472L 14.8787 10.5916C 15.6357 9.43705 16.9856 7.78653 20.0122 7.78653C 23.7596 7.78653 26.5691 10.2135 26.5691 15.4282ZM 3.22322 -4.51282e-07C 1.27476 -4.51282e-07 -4.67529e-08 1.26779 -4.67529e-08 2.93347C -4.67529e-08 4.56379 1.23781 5.86821 3.14846 5.86821L 3.18542 5.86821C 5.17211 5.86821 6.40736 4.56379 6.40736 2.93347C 6.36956 1.26779 5.17211 -4.51282e-07 3.22322 -4.51282e-07ZM 0.338549 25.1663L 6.03271 25.1663L 6.03271 8.18526L 0.338549 8.18526L 0.338549 25.1663Z"/>
<path id="path11_fill" d="M 13.4345 21.4638C 11.633 21.3244 10.876 20.4311 9.4632 19.5735C 8.68671 23.6475 7.73775 27.553 4.92699 29.5932C 4.05832 23.4356 6.20048 18.8106 7.19531 13.9014C 5.49959 11.0469 7.3992 5.30135 10.9758 6.71714C 15.3778 8.45788 7.16473 17.3311 12.6784 18.4393C 18.4345 19.5964 20.7844 8.45151 17.2146 4.82645C 12.0569 -0.407248 2.20161 4.70751 3.4135 12.1998C 3.70873 14.0314 5.60154 14.5874 4.16961 17.1149C 0.868655 16.3838 -0.115982 13.7804 0.010602 10.3095C 0.214921 4.62808 5.11559 0.650026 10.0311 0.0995125C 16.2478 -0.596275 22.0825 2.38227 22.8879 8.22978C 23.794 14.8296 20.0814 21.9769 13.4345 21.4638Z"/>
<path id="path12_fill" d="M -1.30534e-09 26.9231L 1.8835 20.2335C 0.6723 18.1759 0.0345937 15.8347 0.0345937 13.4297C 0.0345937 6.02454 6.05914 -1.99676e-10 13.4643 -1.99676e-10C 20.8695 -1.99676e-10 26.8939 6.02454 26.8939 13.4297C 26.8939 20.8349 20.8695 26.8594 13.4643 26.8594C 11.1569 26.8594 8.89751 26.2688 6.89875 25.1473L -1.30534e-09 26.9231ZM 7.25144 22.704L 7.66252 22.9551C 9.4052 24.0189 11.4115 24.5813 13.4643 24.5813C 19.6133 24.5813 24.6158 19.5787 24.6158 13.4297C 24.6158 7.28072 19.6133 2.27813 13.4643 2.27813C 7.31531 2.27813 2.31272 7.28072 2.31272 13.4297C 2.31272 15.5723 2.92165 17.6529 4.07354 19.4466L 4.35038 19.8777L 3.26573 23.73L 7.25144 22.704Z"/>
<path id="path13_fill" d="M 3.01734 0.0490819L 2.14591 0.00157841C 1.8722 -0.013356 1.60372 0.0781067 1.39683 0.257825C 0.974364 0.624688 0.298858 1.33394 0.0913799 2.25819C -0.218023 3.63629 0.26013 5.32378 1.49766 7.01128C 2.73519 8.69878 5.04141 11.3988 9.1195 12.5519C 10.4336 12.9235 11.4674 12.673 12.265 12.1628C 12.8967 11.7587 13.3322 11.1101 13.4891 10.3769L 13.6283 9.72706C 13.6725 9.52051 13.5676 9.31093 13.3757 9.2225L 10.4306 7.86499C 10.2394 7.7769 10.0127 7.83259 9.88411 7.99923L 8.72792 9.49807C 8.64059 9.6113 8.49108 9.65619 8.35608 9.60877C 7.56431 9.3305 4.91206 8.2197 3.45676 5.41643C 3.39365 5.29484 3.40934 5.14727 3.49886 5.04358L 4.60384 3.76529C 4.71673 3.63477 4.74525 3.45125 4.67741 3.29263L 3.40791 0.322541C 3.34032 0.164422 3.18887 0.0584475 3.01734 0.0490819Z"/>
<path id="path14_fill" d="M 27.1059 6.94749L 27.0976 6.91414C 26.4287 4.1874 23.4132 1.26145 20.6439 0.652732L 20.6126 0.646246C 16.1334 -0.215415 11.5917 -0.215415 7.11344 0.646246L 7.08128 0.652732C 4.3129 1.26145 1.29736 4.1874 0.627549 6.91414L 0.620198 6.94749C -0.206733 10.7555 -0.206733 14.6172 0.620198 18.4252L 0.627549 18.4585C 1.26879 21.0689 4.05977 23.8604 6.7257 24.6281L 6.7257 27.6719C 6.7257 28.7736 8.05706 29.3146 8.81416 28.5197L 11.8724 25.314C 12.5357 25.3515 13.1994 25.3723 13.863 25.3723C 16.1178 25.3723 18.3735 25.1574 20.6126 24.7265L 20.6439 24.72C 23.4132 24.1113 26.4287 21.1854 27.0976 18.4586L 27.1059 18.4253C 27.9328 14.6172 27.9328 10.7555 27.1059 6.94749ZM 24.6857 17.873C 24.2392 19.6519 21.9495 21.8635 20.1302 22.2721C 17.7486 22.7288 15.3481 22.924 12.95 22.857C 12.9023 22.8557 12.8565 22.8743 12.8232 22.9088C 12.4829 23.2611 10.5902 25.2203 10.5902 25.2203L 8.2151 27.6783C 8.04144 27.8608 7.7364 27.7367 7.7364 27.4847L 7.7364 22.4424C 7.7364 22.3591 7.67741 22.2883 7.59628 22.2723C 7.59582 22.2722 7.59536 22.2721 7.5949 22.272C 5.77565 21.8634 3.48689 19.6518 3.03943 17.8729C 2.29519 14.4309 2.29519 10.9416 3.03943 7.4996C 3.48689 5.72069 5.77565 3.50909 7.5949 3.1005C 11.7544 2.30277 15.9717 2.30277 20.1302 3.1005C 21.9504 3.50909 24.2392 5.72069 24.6857 7.4996C 25.4308 10.9417 25.4308 14.431 24.6857 17.873Z"/>
<path id="path15_fill" d="M 11.1751 14.684C 10.8954 14.5984 10.6288 14.5409 10.3813 14.4373C 7.81635 13.3642 5.45574 11.9798 3.58587 9.85761C 2.52253 8.65082 1.69027 7.28838 0.986733 5.84653C 0.653112 5.16276 0.371956 4.45221 0.0853783 3.7463C -0.175932 3.10256 0.208958 2.4375 0.614246 1.95247C 0.994542 1.49727 1.4839 1.1489 2.01387 0.892162C 2.42752 0.691756 2.83557 0.807293 3.13767 1.16085C 3.79076 1.92523 4.39065 2.7287 4.87643 3.61473C 5.17514 4.15971 5.09318 4.82588 4.55181 5.19676C 4.42024 5.28691 4.30034 5.39272 4.17777 5.49454C 4.07026 5.58377 3.9691 5.67392 3.89542 5.79474C 3.76072 6.0158 3.75429 6.27653 3.84102 6.51686C 4.50863 8.36693 5.6339 9.80554 7.48053 10.5804C 7.77602 10.7044 8.07279 10.8487 8.41321 10.8087C 8.98334 10.7415 9.16793 10.1109 9.56742 9.78145C 9.95792 9.45948 10.4569 9.45522 10.8776 9.72363C 11.2983 9.99214 11.7061 10.2804 12.1115 10.5717C 12.5095 10.8576 12.9057 11.1373 13.2727 11.4633C 13.6256 11.7767 13.7472 12.1879 13.5485 12.6133C 13.1846 13.3923 12.6552 14.0404 11.8915 14.4541C 11.6758 14.5707 11.4183 14.6085 11.1751 14.684C 10.8954 14.5983 11.4183 14.6085 11.1751 14.684ZM 7.22464 0.00140811C 10.5797 0.0961909 13.3353 2.34142 13.9258 5.68615C 14.0264 6.25605 14.0623 6.83874 14.107 7.41716C 14.1258 7.66047 13.9892 7.89163 13.7288 7.89478C 13.4599 7.89803 13.3389 7.67112 13.3214 7.42791C 13.2869 6.94649 13.2629 6.46294 13.1971 5.98551C 12.8498 3.46529 10.8569 1.38025 8.3692 0.932836C 7.99488 0.865478 7.61173 0.847782 7.23254 0.807663C 6.99282 0.782277 6.67886 0.767638 6.62576 0.467168C 6.58119 0.215248 6.79206 0.0146572 7.02994 0.00177862C 7.09463 -0.0018348 7.15968 0.00113015 7.22464 0.00140811C 10.5797 0.0961909 7.15968 0.00113015 7.22464 0.00140811Z"/>
<path id="path16_fill" d="M 5.08731 4.85825C 5.0818 4.9005 5.07886 4.99982 5.05432 5.0934C 4.96529 5.43306 4.45462 5.47559 4.33701 5.13278C 4.30219 5.03104 4.29695 4.91532 4.29676 4.80581C 4.29557 4.08924 4.14112 3.37341 3.78278 2.74996C 3.41443 2.10918 2.85166 1.5705 2.19158 1.24455C 1.79245 1.04748 1.36079 0.924997 0.923347 0.851987C 0.732142 0.820115 0.538916 0.800751 0.346792 0.773789C 0.113965 0.741175 -0.0103504 0.591543 0.000675257 0.360192C 0.010966 0.143387 0.168083 -0.0125466 0.40238 0.000795284C 1.17234 0.0448975 1.91603 0.21269 2.60054 0.578201C 3.99254 1.32155 4.78768 2.49489 5.01978 4.06163C 5.03025 4.1326 5.04716 4.20292 5.05249 4.27417C 5.06563 4.45012 5.07389 4.62625 5.08731 4.85825C 5.0818 4.9005 5.07389 4.62625 5.08731 4.85825Z"/>
<path id="path17_fill" d="M 2.49084 2.92293C 2.21014 2.92802 2.05992 2.77135 2.03097 2.51183C 2.01085 2.33088 1.99496 2.14752 1.95214 1.97149C 1.86779 1.62478 1.68504 1.30347 1.3958 1.09102C 1.25926 0.990675 1.10454 0.917572 0.942457 0.870413C 0.736551 0.810467 0.522743 0.826959 0.317297 0.776186C 0.0942091 0.721058 -0.0291871 0.538904 0.00591149 0.327843C 0.0377943 0.135776 0.223119 -0.0141337 0.43123 0.00106118C 1.73199 0.0957513 2.66165 0.773869 2.79432 2.318C 2.80369 2.42696 2.81472 2.54213 2.79074 2.64636C 2.74967 2.82481 2.61865 2.91422 2.49084 2.92293C 2.21014 2.92802 2.61865 2.91422 2.49084 2.92293Z"/>
<path id="path18_fill" d="M 0.423911 10.0387L 5.95399 12.1066L 8.09447 19.0035C 8.23143 19.4452 8.77055 19.6085 9.12839 19.3154L 12.211 16.7976C 12.5341 16.5338 12.9943 16.5207 13.332 16.7663L 18.8918 20.8106C 19.2746 21.0893 19.8169 20.8792 19.913 20.4157L 23.9858 0.787056C 24.0906 0.280812 23.5942 -0.141512 23.113 0.0449226L 0.417431 8.81691C -0.142649 9.03332 -0.137769 9.8278 0.423911 10.0387ZM 7.74951 11.0058L 18.5574 4.33654C 18.7516 4.21703 18.9514 4.48017 18.7846 4.63519L 9.86503 12.9422C 9.55151 13.2346 9.34927 13.6259 9.29199 14.0506L 8.98815 16.3066C 8.94791 16.6078 8.52559 16.6377 8.44263 16.3462L 7.27407 12.2324C 7.14023 11.7632 7.33527 11.262 7.74951 11.0058Z"/>
<path id="path19_fill" d="M 16.5 46C 25.6127 46 33 35.7025 33 23C 33 10.2975 25.6127 0 16.5 0C 7.3873 0 0 10.2975 0 23C 0 35.7025 7.3873 46 16.5 46Z"/>
<path id="path20_fill" d="M 4.15164 8.25257C 6.43751 8.24425 8.25809 6.408 8.24976 4.11723C 8.24143 1.82547 6.41694 0.00196194 4.13008 2.74385e-06C 1.82412 -0.00244616 -0.0175076 1.85486 0.000125045 4.16719C 0.0172679 6.44963 1.85841 8.2609 4.15164 8.25257Z"/>
<path id="path21_fill" d="M 23.9388 0C 10.7177 0 0 10.7182 0 23.9388C 0 37.1593 10.7177 47.8776 23.9388 47.8776C 37.1598 47.8776 47.8776 37.1593 47.8776 23.9388C 47.8776 10.7182 37.1598 0 23.9388 0ZM 23.9731 7.27984C 28.6359 7.29257 32.3784 11.1066 32.3545 15.8209C 32.3309 20.4264 28.5272 24.1592 23.8722 24.1435C 19.2647 24.1278 15.4859 20.3079 15.5133 15.6931C 15.5393 11.0278 19.32 7.2671 23.9731 7.27984ZM 33.4173 27.4565C 32.3863 28.5149 31.1451 29.281 29.7669 29.8153C 28.464 30.3203 27.0362 30.5745 25.6227 30.744C 25.8367 30.9762 25.9371 31.0903 26.0704 31.2235C 27.9884 33.1518 29.9158 35.0704 31.8274 37.0041C 32.4789 37.6633 32.6145 38.4803 32.256 39.2459C 31.8647 40.0834 30.9865 40.634 30.1249 40.5747C 29.5793 40.537 29.1536 40.2661 28.776 39.8856C 27.3282 38.4289 25.8529 36.9982 24.4354 35.5141C 24.0216 35.0821 23.8237 35.1644 23.4588 35.5396C 22.0026 37.0393 20.5224 38.5151 19.034 39.983C 18.3654 40.6423 17.57 40.7618 16.7941 40.3847C 15.9698 39.986 15.4457 39.144 15.4859 38.2971C 15.5143 37.726 15.7954 37.2882 16.1882 36.8973C 18.0872 35.0023 19.9802 33.1014 21.8738 31.202C 21.9997 31.0761 22.1162 30.9424 22.2989 30.7464C 19.7162 30.4766 17.3873 29.8408 15.3933 28.2818C 15.1455 28.0878 14.8903 27.9007 14.665 27.6833C 13.7917 26.8452 13.704 25.8847 14.3941 24.8963C 14.9853 24.05 15.9767 23.8237 17.0077 24.31C 17.2075 24.4036 17.3976 24.5221 17.5798 24.6475C 21.2953 27.2008 26.4 27.2709 30.1303 24.7616C 30.4996 24.4795 30.8949 24.2473 31.3528 24.1303C 32.2423 23.9011 33.073 24.2287 33.55 25.0075C 34.0962 25.8975 34.0898 26.7654 33.4173 27.4565Z"/>
<path id="path22_fill" d="M 18.4582 0L 7.83199 0C 3.51341 0 0 3.51341 0 7.83199L 0 18.4582C 0 22.7768 3.51341 26.2902 7.83199 26.2902L 18.4582 26.2902C 22.7768 26.2902 26.2902 22.7768 26.2902 18.4582L 26.2902 7.83199C 26.2901 3.51341 22.7767 0 18.4582 0ZM 23.6454 18.4582C 23.6454 21.323 21.323 23.6454 18.4582 23.6454L 7.83199 23.6454C 4.9672 23.6454 2.64479 21.323 2.64479 18.4582L 2.64479 7.83199C 2.64479 4.96716 4.9672 2.64479 7.83199 2.64479L 18.4582 2.64479C 21.323 2.64479 23.6454 4.96716 23.6454 7.83199L 23.6454 18.4582Z"/>
<path id="path23_fill" d="M 6.79958 1.25345e-07C 3.05029 1.25345e-07 1.25345e-07 3.05029 1.25345e-07 6.79953C 1.25345e-07 10.5488 3.05029 13.5991 6.79958 13.5991C 10.5489 13.5991 13.5992 10.5488 13.5992 6.79953C 13.5992 3.05024 10.5489 1.25345e-07 6.79958 1.25345e-07ZM 6.79958 10.9544C 4.50494 10.9544 2.64479 9.09422 2.64479 6.79958C 2.64479 4.50494 4.50498 2.64479 6.79958 2.64479C 9.09422 2.64479 10.9544 4.50494 10.9544 6.79958C 10.9544 9.09418 9.09418 10.9544 6.79958 10.9544Z"/>
<path id="path24_fill" d="M 1.629 3.258C 2.52867 3.258 3.258 2.52867 3.258 1.629C 3.258 0.729328 2.52867 0 1.629 0C 0.729328 0 0 0.729328 0 1.629C 0 2.52867 0.729328 3.258 1.629 3.258Z"/>
</defs>
</svg>
